<svg width="971" height="1016" viewBox="0 0 971 1016" fill="none" xmlns="http://www.w3.org/2000/svg">
<path opacity="0.6" d="M28.8561 -523.987C52.8498 -556.635 88.8403 -573.819 136.828 -577.255C224.233 -584.129 273.934 -542.889 285.931 -453.536C339.06 -94.4058 397.33 209.738 459.028 458.895L834.357 -257.647C868.634 -322.943 911.48 -357.31 962.895 -360.746C1038.3 -365.901 1084.58 -317.788 1103.43 -216.407C1146.27 12.1301 1201.12 206.301 1266.24 371.26C1310.8 -65.1943 1386.21 -379.648 1492.47 -573.819C1518.18 -621.932 1555.88 -645.988 1605.58 -649.425C1645 -652.861 1680.99 -640.833 1713.55 -615.058C1746.12 -589.283 1763.25 -556.636 1766.68 -517.114C1768.4 -486.184 1763.25 -460.409 1749.54 -434.634C1682.7 -310.915 1627.86 -102.997 1583.3 185.681C1540.46 465.768 1525.03 683.995 1535.31 840.363C1538.74 883.321 1531.89 921.124 1514.75 953.773C1494.18 991.576 1463.33 1012.2 1423.92 1015.63C1379.36 1019.07 1333.08 998.449 1288.52 952.054C1129.14 788.813 1002.31 544.811 909.766 220.048C798.367 439.994 716.103 604.953 662.974 714.925C561.858 909.096 476.166 1008.76 404.186 1013.91C357.912 1017.35 318.494 977.829 284.217 895.35C196.812 670.249 102.551 235.513 1.43496 -408.859C-3.70654 -453.536 4.86246 -493.057 28.8561 -523.987Z" fill="white"/>
</svg>
